<svg xmlns="http://www.w3.org/2000/svg" xmlns:xlink="http://www.w3.org/1999/xlink" width="1126pt" height="689pt" viewBox="0 0 1125.6 688.6"><g id="graph0" class="graph" transform="scale(1 1) rotate(0) translate(28.8 659.8)"><title>Gemcutter</title><polygon fill="#fff" stroke="none" points="-28.8 28.8 -28.8 -659.8 1096.8 -659.8 1096.8 28.8 -28.8 28.8"/><text x="534" y="-616.6" font-family="Arial BoldMT" font-size="13" text-anchor="middle">RubyGems.org domain model</text><g id="node1" class="node"><title>m_Delayed::Backend::ActiveRecord::Job</title><path fill="none" stroke="#000" d="M34.5,-427C34.5,-427 205.5,-427 205.5,-427 211.5,-427 217.5,-433 217.5,-439 217.5,-439 217.5,-562 217.5,-562 217.5,-568 211.5,-574 205.5,-574 205.5,-574 34.5,-574 34.5,-574 28.5,-574 22.5,-568 22.5,-562 22.5,-562 22.5,-439 22.5,-439 22.5,-433 28.5,-427 34.5,-427"/><text x="28" y="-561.2" font-family="Arial BoldMT" font-size="11" text-anchor="start">Delayed::Backend::ActiveRecord::Job</text><polyline fill="none" stroke="#000" points="22.5 -554 217.5 -554"/><text x="55" y="-540.5" font-family="ArialMT" font-size="10" text-anchor="start">attempts</text><text x="97" y="-540.5" fill="#999" font-family="Arail ItalicMT" font-size="10" text-anchor="start">integer</text><text x="55" y="-527.5" font-family="ArialMT" font-size="10" text-anchor="start">failed_at</text><text x="96" y="-527.5" fill="#999" font-family="Arail ItalicMT" font-size="10" text-anchor="start">datetime</text><text x="55" y="-514.5" font-family="ArialMT" font-size="10" text-anchor="start">handler</text><text x="92" y="-514.5" fill="#999" font-family="Arail ItalicMT" font-size="10" text-anchor="start">text</text><text x="55" y="-501.5" font-family="ArialMT" font-size="10" text-anchor="start">last_error</text><text x="101" y="-501.5" fill="#999" font-family="Arail ItalicMT" font-size="10" text-anchor="start">text</text><text x="55" y="-488.5" font-family="ArialMT" font-size="10" text-anchor="start">locked_at</text><text x="101" y="-488.5" fill="#999" font-family="Arail ItalicMT" font-size="10" text-anchor="start">datetime</text><text x="55" y="-475.5" font-family="ArialMT" font-size="10" text-anchor="start">locked_by</text><text x="103" y="-475.5" fill="#999" font-family="Arail ItalicMT" font-size="10" text-anchor="start">string</text><text x="55" y="-462.5" font-family="ArialMT" font-size="10" text-anchor="start">priority</text><text x="88" y="-462.5" fill="#999" font-family="Arail ItalicMT" font-size="10" text-anchor="start">integer</text><text x="55" y="-449.5" font-family="ArialMT" font-size="10" text-anchor="start">queue</text><text x="86" y="-449.5" fill="#999" font-family="Arail ItalicMT" font-size="10" text-anchor="start">string</text><text x="55" y="-436.5" font-family="ArialMT" font-size="10" text-anchor="start">run_at</text><text x="87" y="-436.5" fill="#999" font-family="Arail ItalicMT" font-size="10" text-anchor="start">datetime</text></g><g id="node2" class="node"><title>m_Deletion</title><path fill="none" stroke="#000" d="M12,-204C12,-204 132,-204 132,-204 138,-204 144,-210 144,-216 144,-216 144,-261 144,-261 144,-267 138,-273 132,-273 132,-273 12,-273 12,-273 6,-273 0,-267 0,-261 0,-261 0,-216 0,-216 0,-210 6,-204 12,-204"/><text x="49.5" y="-260.2" font-family="Arial BoldMT" font-size="11" text-anchor="start">Deletion</text><polyline fill="none" stroke="#000" points="0 -253 144 -253"/><text x="7" y="-239.5" font-family="ArialMT" font-size="10" text-anchor="start">number</text><text x="44" y="-239.5" fill="#999" font-family="Arail ItalicMT" font-size="10" text-anchor="start">string ∗</text><text x="7" y="-226.5" font-family="ArialMT" font-size="10" text-anchor="start">platform</text><text x="46" y="-226.5" fill="#999" font-family="Arail ItalicMT" font-size="10" text-anchor="start">string</text><text x="7" y="-213.5" font-family="ArialMT" font-size="10" text-anchor="start">rubygem</text><text x="49" y="-213.5" fill="#999" font-family="Arail ItalicMT" font-size="10" text-anchor="start">string ∗</text></g><g id="node3" class="node"><title>m_Dependency</title><path fill="none" stroke="#000" d="M705,-0.5C705,-0.5 825,-0.5 825,-0.5 831,-0.5 837,-6.5 837,-12.5 837,-12.5 837,-57.5 837,-57.5 837,-63.5 831,-69.5 825,-69.5 825,-69.5 705,-69.5 705,-69.5 699,-69.5 693,-63.5 693,-57.5 693,-57.5 693,-12.5 693,-12.5 693,-6.5 699,-0.5 705,-0.5"/><text x="732" y="-56.7" font-family="Arial BoldMT" font-size="11" text-anchor="start">Dependency</text><polyline fill="none" stroke="#000" points="693 -49.5 837 -49.5"/><text x="700" y="-36" font-family="ArialMT" font-size="10" text-anchor="start">requirements</text><text x="762" y="-36" fill="#999" font-family="Arail ItalicMT" font-size="10" text-anchor="start">string ∗</text><text x="700" y="-23" font-family="ArialMT" font-size="10" text-anchor="start">scope</text><text x="730" y="-23" fill="#999" font-family="Arail ItalicMT" font-size="10" text-anchor="start">string</text><text x="700" y="-10" font-family="ArialMT" font-size="10" text-anchor="start">unresolved_name</text><text x="783" y="-10" fill="#999" font-family="Arail ItalicMT" font-size="10" text-anchor="start">string</text></g><g id="node4" class="node"><title>m_Linkset</title><path fill="none" stroke="#000" d="M936,-184.5C936,-184.5 1056,-184.5 1056,-184.5 1062,-184.5 1068,-190.5 1068,-196.5 1068,-196.5 1068,-280.5 1068,-280.5 1068,-286.5 1062,-292.5 1056,-292.5 1056,-292.5 936,-292.5 936,-292.5 930,-292.5 924,-286.5 924,-280.5 924,-280.5 924,-196.5 924,-196.5 924,-190.5 930,-184.5 936,-184.5"/><text x="976.5" y="-279.7" font-family="Arial BoldMT" font-size="11" text-anchor="start">Linkset</text><polyline fill="none" stroke="#000" points="924 -272.5 1068 -272.5"/><text x="931" y="-259.5" font-family="ArialMT" font-size="10" text-anchor="start">bugs</text><text x="956" y="-259.5" fill="#999" font-family="Arail ItalicMT" font-size="10" text-anchor="start">string</text><text x="931" y="-246.5" font-family="ArialMT" font-size="10" text-anchor="start">code</text><text x="956" y="-246.5" fill="#999" font-family="Arail ItalicMT" font-size="10" text-anchor="start">string</text><text x="931" y="-233.5" font-family="ArialMT" font-size="10" text-anchor="start">docs</text><text x="955" y="-233.5" fill="#999" font-family="Arail ItalicMT" font-size="10" text-anchor="start">string</text><text x="931" y="-220.5" font-family="ArialMT" font-size="10" text-anchor="start">home</text><text x="959" y="-220.5" fill="#999" font-family="Arail ItalicMT" font-size="10" text-anchor="start">string</text><text x="931" y="-207.5" font-family="ArialMT" font-size="10" text-anchor="start">mail</text><text x="953" y="-207.5" fill="#999" font-family="Arail ItalicMT" font-size="10" text-anchor="start">string</text><text x="931" y="-194.5" font-family="ArialMT" font-size="10" text-anchor="start">wiki</text><text x="951" y="-194.5" fill="#999" font-family="Arail ItalicMT" font-size="10" text-anchor="start">string</text></g><g id="node5" class="node"><title>m_Ownership</title><path fill="none" stroke="#000" d="M185,-217C185,-217 305,-217 305,-217 311,-217 317,-223 317,-229 317,-229 317,-248 317,-248 317,-254 311,-260 305,-260 305,-260 185,-260 185,-260 179,-260 173,-254 173,-248 173,-248 173,-229 173,-229 173,-223 179,-217 185,-217"/><text x="216.5" y="-247.2" font-family="Arial BoldMT" font-size="11" text-anchor="start">Ownership</text><polyline fill="none" stroke="#000" points="173 -240 317 -240"/><text x="180" y="-226.5" font-family="ArialMT" font-size="10" text-anchor="start">token</text><text x="208" y="-226.5" fill="#999" font-family="Arail ItalicMT" font-size="10" text-anchor="start">string</text></g><g id="node6" class="node"><title>m_Rubygem</title><path fill="none" stroke="#000" d="M531,-466C531,-466 651,-466 651,-466 657,-466 663,-472 663,-478 663,-478 663,-523 663,-523 663,-529 657,-535 651,-535 651,-535 531,-535 531,-535 525,-535 519,-529 519,-523 519,-523 519,-478 519,-478 519,-472 525,-466 531,-466"/><text x="565" y="-522.2" font-family="Arial BoldMT" font-size="11" text-anchor="start">Rubygem</text><polyline fill="none" stroke="#000" points="519 -515 663 -515"/><text x="526" y="-501.5" font-family="ArialMT" font-size="10" text-anchor="start">downloads</text><text x="577" y="-501.5" fill="#999" font-family="Arail ItalicMT" font-size="10" text-anchor="start">integer</text><text x="526" y="-488.5" font-family="ArialMT" font-size="10" text-anchor="start">name</text><text x="554" y="-488.5" fill="#999" font-family="Arail ItalicMT" font-size="10" text-anchor="start">string ∗ U</text><text x="526" y="-475.5" font-family="ArialMT" font-size="10" text-anchor="start">slug</text><text x="548" y="-475.5" fill="#999" font-family="Arail ItalicMT" font-size="10" text-anchor="start">string</text></g><g id="edge2" class="edge"><title>m_Rubygem-&gt;m_Dependency</title><path fill="none" stroke="#000" d="M618.996,-465.858C638.27,-441.07 663.012,-405.759 678,-371 725.777,-260.2 701.367,-221.28 737,-106 739.812,-96.9025 743.287,-87.3226 746.821,-78.2691"/><polygon fill="#000" stroke="#000" points="749.797 -79.31 750.208 -69.783 743.946 -76.975 749.797 -79.31"/></g><g id="edge4" class="edge"><title>m_Rubygem-&gt;m_Linkset</title><path fill="none" stroke="#000" d="M663.066,-483.822C732.327,-465.881 836.965,-430.945 910,-371 935.725,-349.886 956.462,-319.031 971.123,-292.515"/></g><g id="edge5" class="edge"><title>m_Rubygem-&gt;m_Ownership</title><path fill="none" stroke="#000" d="M533.65,-465.797C501.359,-447.411 460.001,-424.832 422,-407 382.625,-388.523 364.706,-398.49 331,-371 296.752,-343.069 271.409,-297.825 257.416,-268.367"/><polygon fill="#000" stroke="#000" points="260.246 -266.981 253.607 -260.137 254.529 -269.628 260.246 -266.981"/></g><g id="node7" class="node"><title>m_Subscription</title><path fill="none" stroke="#000" d="M358,-220.5C358,-220.5 478,-220.5 478,-220.5 484,-220.5 490,-226.5 490,-232.5 490,-232.5 490,-244.5 490,-244.5 490,-250.5 484,-256.5 478,-256.5 478,-256.5 358,-256.5 358,-256.5 352,-256.5 346,-250.5 346,-244.5 346,-244.5 346,-232.5 346,-232.5 346,-226.5 352,-220.5 358,-220.5"/><text x="385.5" y="-235.7" font-family="Arial BoldMT" font-size="11" text-anchor="start">Subscription</text></g><g id="edge9" class="edge"><title>m_Rubygem-&gt;m_Subscription</title><path fill="none" stroke="#000" d="M567.955,-465.78C550.333,-439.919 525.493,-403.298 504,-371 479.348,-333.955 451.194,-290.727 434.011,-264.238"/><polygon fill="#000" stroke="#000" points="436.585 -262.418 429.046 -256.58 431.299 -265.845 436.585 -262.418"/></g><g id="node8" class="node"><title>m_User</title><path fill="none" stroke="#000" d="M258.5,-407.5C258.5,-407.5 395.5,-407.5 395.5,-407.5 401.5,-407.5 407.5,-413.5 407.5,-419.5 407.5,-419.5 407.5,-581.5 407.5,-581.5 407.5,-587.5 401.5,-593.5 395.5,-593.5 395.5,-593.5 258.5,-593.5 258.5,-593.5 252.5,-593.5 246.5,-587.5 246.5,-581.5 246.5,-581.5 246.5,-419.5 246.5,-419.5 246.5,-413.5 252.5,-407.5 258.5,-407.5"/><text x="313" y="-580.7" font-family="Arial BoldMT" font-size="11" text-anchor="start">User</text><polyline fill="none" stroke="#000" points="246.5 -573.5 407.5 -573.5"/><text x="254" y="-560.5" font-family="ArialMT" font-size="10" text-anchor="start">api_key</text><text x="292" y="-560.5" fill="#999" font-family="Arail ItalicMT" font-size="10" text-anchor="start">string</text><text x="254" y="-547.5" font-family="ArialMT" font-size="10" text-anchor="start">confirmation_token</text><text x="342" y="-547.5" fill="#999" font-family="Arail ItalicMT" font-size="10" text-anchor="start">string (128)</text><text x="254" y="-534.5" font-family="ArialMT" font-size="10" text-anchor="start">email</text><text x="281" y="-534.5" fill="#999" font-family="Arail ItalicMT" font-size="10" text-anchor="start">string ∗ U</text><text x="254" y="-521.5" font-family="ArialMT" font-size="10" text-anchor="start">email_confirmed</text><text x="331" y="-521.5" fill="#999" font-family="Arail ItalicMT" font-size="10" text-anchor="start">boolean ∗</text><text x="254" y="-508.5" font-family="ArialMT" font-size="10" text-anchor="start">email_reset</text><text x="309" y="-508.5" fill="#999" font-family="Arail ItalicMT" font-size="10" text-anchor="start">boolean</text><text x="254" y="-495.5" font-family="ArialMT" font-size="10" text-anchor="start">encrypted_password</text><text x="350" y="-495.5" fill="#999" font-family="Arail ItalicMT" font-size="10" text-anchor="start">string (128)</text><text x="254" y="-482.5" font-family="ArialMT" font-size="10" text-anchor="start">handle</text><text x="287" y="-482.5" fill="#999" font-family="Arail ItalicMT" font-size="10" text-anchor="start">string U</text><text x="254" y="-469.5" font-family="ArialMT" font-size="10" text-anchor="start">hide_email</text><text x="306" y="-469.5" fill="#999" font-family="Arail ItalicMT" font-size="10" text-anchor="start">boolean</text><text x="254" y="-456.5" font-family="ArialMT" font-size="10" text-anchor="start">remember_token</text><text x="333" y="-456.5" fill="#999" font-family="Arail ItalicMT" font-size="10" text-anchor="start">string (128)</text><text x="254" y="-443.5" font-family="ArialMT" font-size="10" text-anchor="start">salt</text><text x="273" y="-443.5" fill="#999" font-family="Arail ItalicMT" font-size="10" text-anchor="start">string (128)</text><text x="254" y="-430.5" font-family="ArialMT" font-size="10" text-anchor="start">token</text><text x="282" y="-430.5" fill="#999" font-family="Arail ItalicMT" font-size="10" text-anchor="start">string (128)</text><text x="254" y="-417.5" font-family="ArialMT" font-size="10" text-anchor="start">token_expires_at</text><text x="333" y="-417.5" fill="#999" font-family="Arail ItalicMT" font-size="10" text-anchor="start">datetime</text></g><g id="edge7" class="edge"><title>m_Rubygem-&gt;m_User</title><path fill="none" stroke="#000" stroke-dasharray="1 5" d="M553.05,-465.975C507.438,-431.444 461.825,-422.034 416.212,-437.743"/><polygon fill="#000" stroke="#000" points="414.996 -434.835 407.695 -440.968 417.228 -440.727 414.996 -434.835"/></g><g id="edge8" class="edge"><title>m_Rubygem-&gt;m_User</title><path fill="none" stroke="#000" stroke-dasharray="1 5" d="M553.05,-535.025C507.438,-569.556 461.825,-578.966 416.212,-563.257"/><polygon fill="#000" stroke="#000" points="417.228 -560.273 407.695 -560.032 414.996 -566.165 417.228 -560.273"/></g><g id="node9" class="node"><title>m_Version</title><path fill="none" stroke="#000" d="M763,-106.5C763,-106.5 883,-106.5 883,-106.5 889,-106.5 895,-112.5 895,-118.5 895,-118.5 895,-358.5 895,-358.5 895,-364.5 889,-370.5 883,-370.5 883,-370.5 763,-370.5 763,-370.5 757,-370.5 751,-364.5 751,-358.5 751,-358.5 751,-118.5 751,-118.5 751,-112.5 757,-106.5 763,-106.5"/><text x="802" y="-357.7" font-family="Arial BoldMT" font-size="11" text-anchor="start">Version</text><polyline fill="none" stroke="#000" points="751 -350.5 895 -350.5"/><text x="758" y="-337.5" font-family="ArialMT" font-size="10" text-anchor="start">authors</text><text x="795" y="-337.5" fill="#999" font-family="Arail ItalicMT" font-size="10" text-anchor="start">text</text><text x="758" y="-324.5" font-family="ArialMT" font-size="10" text-anchor="start">built_at</text><text x="794" y="-324.5" fill="#999" font-family="Arail ItalicMT" font-size="10" text-anchor="start">datetime</text><text x="758" y="-311.5" font-family="ArialMT" font-size="10" text-anchor="start">description</text><text x="810" y="-311.5" fill="#999" font-family="Arail ItalicMT" font-size="10" text-anchor="start">text</text><text x="758" y="-298.5" font-family="ArialMT" font-size="10" text-anchor="start">full_name</text><text x="805" y="-298.5" fill="#999" font-family="Arail ItalicMT" font-size="10" text-anchor="start">string</text><text x="758" y="-285.5" font-family="ArialMT" font-size="10" text-anchor="start">indexed</text><text x="796" y="-285.5" fill="#999" font-family="Arail ItalicMT" font-size="10" text-anchor="start">boolean</text><text x="758" y="-272.5" font-family="ArialMT" font-size="10" text-anchor="start">latest</text><text x="785" y="-272.5" fill="#999" font-family="Arail ItalicMT" font-size="10" text-anchor="start">boolean</text><text x="758" y="-259.5" font-family="ArialMT" font-size="10" text-anchor="start">licenses</text><text x="797" y="-259.5" fill="#999" font-family="Arail ItalicMT" font-size="10" text-anchor="start">string</text><text x="758" y="-246.5" font-family="ArialMT" font-size="10" text-anchor="start">metadata</text><text x="803" y="-246.5" fill="#999" font-family="Arail ItalicMT" font-size="10" text-anchor="start">hstore ∗</text><text x="758" y="-233.5" font-family="ArialMT" font-size="10" text-anchor="start">number</text><text x="795" y="-233.5" fill="#999" font-family="Arail ItalicMT" font-size="10" text-anchor="start">string</text><text x="758" y="-220.5" font-family="ArialMT" font-size="10" text-anchor="start">platform</text><text x="797" y="-220.5" fill="#999" font-family="Arail ItalicMT" font-size="10" text-anchor="start">string</text><text x="758" y="-207.5" font-family="ArialMT" font-size="10" text-anchor="start">position</text><text x="796" y="-207.5" fill="#999" font-family="Arail ItalicMT" font-size="10" text-anchor="start">integer</text><text x="758" y="-194.5" font-family="ArialMT" font-size="10" text-anchor="start">prerelease</text><text x="809" y="-194.5" fill="#999" font-family="Arail ItalicMT" font-size="10" text-anchor="start">boolean</text><text x="758" y="-181.5" font-family="ArialMT" font-size="10" text-anchor="start">requirements</text><text x="820" y="-181.5" fill="#999" font-family="Arail ItalicMT" font-size="10" text-anchor="start">text</text><text x="758" y="-168.5" font-family="ArialMT" font-size="10" text-anchor="start">ruby_version</text><text x="819" y="-168.5" fill="#999" font-family="Arail ItalicMT" font-size="10" text-anchor="start">string</text><text x="758" y="-155.5" font-family="ArialMT" font-size="10" text-anchor="start">rubyforge_project</text><text x="839" y="-155.5" fill="#999" font-family="Arail ItalicMT" font-size="10" text-anchor="start">string</text><text x="758" y="-142.5" font-family="ArialMT" font-size="10" text-anchor="start">sha256</text><text x="794" y="-142.5" fill="#999" font-family="Arail ItalicMT" font-size="10" text-anchor="start">string</text><text x="758" y="-129.5" font-family="ArialMT" font-size="10" text-anchor="start">size</text><text x="779" y="-129.5" fill="#999" font-family="Arail ItalicMT" font-size="10" text-anchor="start">integer</text><text x="758" y="-116.5" font-family="ArialMT" font-size="10" text-anchor="start">summary</text><text x="802" y="-116.5" fill="#999" font-family="Arail ItalicMT" font-size="10" text-anchor="start">text</text></g><g id="edge10" class="edge"><title>m_Rubygem-&gt;m_Version</title><path fill="none" stroke="#000" d="M631.081,-465.998C659.766,-441.137 698.535,-405.677 729,-371 734.441,-364.807 739.87,-358.304 745.22,-351.643"/><polygon fill="#000" stroke="#000" points="747.87 -353.371 750.99 -344.361 742.932 -349.459 747.87 -353.371"/></g><g id="node11" class="node"><title>m_WebHook</title><path fill="none" stroke="#000" d="M531,-210.5C531,-210.5 651,-210.5 651,-210.5 657,-210.5 663,-216.5 663,-222.5 663,-222.5 663,-254.5 663,-254.5 663,-260.5 657,-266.5 651,-266.5 651,-266.5 531,-266.5 531,-266.5 525,-266.5 519,-260.5 519,-254.5 519,-254.5 519,-222.5 519,-222.5 519,-216.5 525,-210.5 531,-210.5"/><text x="564.5" y="-253.7" font-family="Arial BoldMT" font-size="11" text-anchor="start">WebHook</text><polyline fill="none" stroke="#000" points="519 -246.5 663 -246.5"/><text x="526" y="-233.5" font-family="ArialMT" font-size="10" text-anchor="start">failure_count</text><text x="587" y="-233.5" fill="#999" font-family="Arail ItalicMT" font-size="10" text-anchor="start">integer</text><text x="526" y="-220.5" font-family="ArialMT" font-size="10" text-anchor="start">url</text><text x="540" y="-220.5" fill="#999" font-family="Arail ItalicMT" font-size="10" text-anchor="start">string</text></g><g id="edge11" class="edge"><title>m_Rubygem-&gt;m_WebHook</title><path fill="none" stroke="#000" d="M591,-465.776C591,-416.854 591,-326.546 591,-276.073"/><polygon fill="#000" stroke="#000" points="594.15 -275.832 591 -266.832 587.85 -275.832 594.15 -275.832"/></g><g id="edge1" class="edge"><title>m_User-&gt;m_Deletion</title><path fill="none" stroke="#000" d="M246.322,-417.777C241.592,-413.994 236.803,-410.374 232,-407 202.073,-385.975 185.444,-395.177 158,-371 129.59,-345.972 106.706,-309.427 91.7073,-281.212"/><polygon fill="#000" stroke="#000" points="94.446 -279.65 87.498 -273.118 88.856 -282.557 94.446 -279.65"/></g><g id="edge6" class="edge"><title>m_User-&gt;m_Ownership</title><path fill="none" stroke="#000" d="M297.974,-407.468C282.645,-358.864 264.869,-302.498 254.299,-268.983"/><polygon fill="#000" stroke="#000" points="257.228 -267.797 251.516 -260.162 251.219 -269.692 257.228 -267.797"/></g><g id="edge12" class="edge"><title>m_User-&gt;m_Subscription</title><path fill="none" stroke="#000" d="M359.211,-407.468C376.877,-356.994 397.472,-298.15 408.998,-265.219"/><polygon fill="#000" stroke="#000" points="411.999 -266.182 411.999 -256.647 406.052 -264.101 411.999 -266.182"/></g><g id="edge13" class="edge"><title>m_User-&gt;m_WebHook</title><path fill="none" stroke="#000" d="M407.635,-450.016C439.704,-428.122 475.638,-400.623 504,-371 531.913,-341.846 556.533,-302.653 572.394,-274.656"/><polygon fill="#000" stroke="#000" points="575.191 -276.106 576.829 -266.713 569.691 -273.035 575.191 -276.106"/></g><g id="edge3" class="edge"><title>m_Version-&gt;m_Dependency</title><path fill="none" stroke="#000" d="M785.286,-106.475C782.427,-96.5444 779.693,-87.0466 777.21,-78.4192"/><polygon fill="#000" stroke="#000" points="780.235 -77.54 774.718 -69.762 774.181 -79.282 780.235 -77.54"/></g><g id="node10" class="node"><title>m_VersionHistory</title><path fill="none" stroke="#000" d="M878,-7C878,-7 998,-7 998,-7 1004,-7 1010,-13 1010,-19 1010,-19 1010,-51 1010,-51 1010,-57 1004,-63 998,-63 998,-63 878,-63 878,-63 872,-63 866,-57 866,-51 866,-51 866,-19 866,-19 866,-13 872,-7 878,-7"/><text x="900" y="-50.2" font-family="Arial BoldMT" font-size="11" text-anchor="start">VersionHistory</text><polyline fill="none" stroke="#000" points="866 -43 1010 -43"/><text x="873" y="-30" font-family="ArialMT" font-size="10" text-anchor="start">count</text><text x="901" y="-30" fill="#999" font-family="Arail ItalicMT" font-size="10" text-anchor="start">integer</text><text x="873" y="-17" font-family="ArialMT" font-size="10" text-anchor="start">day</text><text x="892" y="-17" fill="#999" font-family="Arail ItalicMT" font-size="10" text-anchor="start">date</text></g><g id="edge14" class="edge"><title>m_Version-&gt;m_VersionHistory</title><path fill="none" stroke="#000" d="M895.015,-111.318C903.319,-96.7664 911.192,-82.9724 917.876,-71.2615"/><polygon fill="#000" stroke="#000" points="920.796 -72.499 922.521 -63.121 915.324 -69.376 920.796 -72.499"/></g></g></svg>